<mxfile host="app.diagrams.net" agent="Mozilla/5.0 (Windows NT 10.0; Win64; x64) AppleWebKit/537.36 (KHTML, like Gecko) Chrome/128.0.0.0 Safari/537.36" version="24.7.14">
  <diagram name="Page-1" id="_DfqwKosqTVEirYqy2V9">
    <mxGraphModel dx="1134" dy="589" grid="1" gridSize="10" guides="1" tooltips="1" connect="1" arrows="1" fold="1" page="1" pageScale="1" pageWidth="850" pageHeight="1100" math="0" shadow="0">
      <root>
        <mxCell id="0" />
        <mxCell id="1" parent="0" />
        <mxCell id="NwUo4CZcdV5w115sLZpy-5" value="" style="edgeStyle=orthogonalEdgeStyle;rounded=0;orthogonalLoop=1;jettySize=auto;html=1;" edge="1" parent="1" source="NwUo4CZcdV5w115sLZpy-1" target="NwUo4CZcdV5w115sLZpy-4">
          <mxGeometry relative="1" as="geometry" />
        </mxCell>
        <mxCell id="NwUo4CZcdV5w115sLZpy-1" value="Mulai" style="rounded=1;whiteSpace=wrap;html=1;" vertex="1" parent="1">
          <mxGeometry x="290" y="70" width="100" height="40" as="geometry" />
        </mxCell>
        <mxCell id="NwUo4CZcdV5w115sLZpy-26" value="" style="edgeStyle=orthogonalEdgeStyle;rounded=0;orthogonalLoop=1;jettySize=auto;html=1;" edge="1" parent="1" source="NwUo4CZcdV5w115sLZpy-4" target="NwUo4CZcdV5w115sLZpy-25">
          <mxGeometry relative="1" as="geometry" />
        </mxCell>
        <mxCell id="NwUo4CZcdV5w115sLZpy-4" value="Menuju halaman Facebook" style="rounded=0;whiteSpace=wrap;html=1;" vertex="1" parent="1">
          <mxGeometry x="260" y="150" width="160" height="40" as="geometry" />
        </mxCell>
        <mxCell id="NwUo4CZcdV5w115sLZpy-29" value="tidak" style="edgeStyle=orthogonalEdgeStyle;rounded=0;orthogonalLoop=1;jettySize=auto;html=1;exitX=1;exitY=0.5;exitDx=0;exitDy=0;entryX=0.5;entryY=0;entryDx=0;entryDy=0;" edge="1" parent="1" source="NwUo4CZcdV5w115sLZpy-25" target="NwUo4CZcdV5w115sLZpy-6">
          <mxGeometry x="-0.0769" relative="1" as="geometry">
            <mxPoint as="offset" />
          </mxGeometry>
        </mxCell>
        <mxCell id="NwUo4CZcdV5w115sLZpy-36" value="ya" style="edgeStyle=orthogonalEdgeStyle;rounded=0;orthogonalLoop=1;jettySize=auto;html=1;exitX=0.5;exitY=1;exitDx=0;exitDy=0;entryX=0.5;entryY=0;entryDx=0;entryDy=0;" edge="1" parent="1" source="NwUo4CZcdV5w115sLZpy-25" target="NwUo4CZcdV5w115sLZpy-12">
          <mxGeometry relative="1" as="geometry">
            <Array as="points">
              <mxPoint x="340" y="600" />
            </Array>
          </mxGeometry>
        </mxCell>
        <mxCell id="NwUo4CZcdV5w115sLZpy-25" value="Apakah sudah Login?" style="rhombus;whiteSpace=wrap;html=1;rounded=0;" vertex="1" parent="1">
          <mxGeometry x="260" y="240" width="160" height="100" as="geometry" />
        </mxCell>
        <mxCell id="NwUo4CZcdV5w115sLZpy-6" value="Mengisi Email / Nomor" style="whiteSpace=wrap;html=1;rounded=0;" vertex="1" parent="1">
          <mxGeometry x="460" y="320" width="120" height="50" as="geometry" />
        </mxCell>
        <mxCell id="NwUo4CZcdV5w115sLZpy-34" style="edgeStyle=orthogonalEdgeStyle;rounded=0;orthogonalLoop=1;jettySize=auto;html=1;exitX=0.5;exitY=1;exitDx=0;exitDy=0;entryX=0.5;entryY=0;entryDx=0;entryDy=0;" edge="1" parent="1" source="NwUo4CZcdV5w115sLZpy-8" target="NwUo4CZcdV5w115sLZpy-19">
          <mxGeometry relative="1" as="geometry" />
        </mxCell>
        <mxCell id="NwUo4CZcdV5w115sLZpy-8" value="Mengisi Password" style="whiteSpace=wrap;html=1;rounded=0;" vertex="1" parent="1">
          <mxGeometry x="460" y="410" width="120" height="50" as="geometry" />
        </mxCell>
        <mxCell id="NwUo4CZcdV5w115sLZpy-40" value="tidak" style="edgeStyle=orthogonalEdgeStyle;rounded=0;orthogonalLoop=1;jettySize=auto;html=1;" edge="1" parent="1" source="NwUo4CZcdV5w115sLZpy-10" target="NwUo4CZcdV5w115sLZpy-39">
          <mxGeometry relative="1" as="geometry" />
        </mxCell>
        <mxCell id="NwUo4CZcdV5w115sLZpy-10" value="Berhasil?" style="rhombus;whiteSpace=wrap;html=1;rounded=0;" vertex="1" parent="1">
          <mxGeometry x="470" y="590" width="100" height="80" as="geometry" />
        </mxCell>
        <mxCell id="NwUo4CZcdV5w115sLZpy-12" value="Menuju Beranda" style="whiteSpace=wrap;html=1;rounded=0;" vertex="1" parent="1">
          <mxGeometry x="280" y="600" width="120" height="60" as="geometry" />
        </mxCell>
        <mxCell id="NwUo4CZcdV5w115sLZpy-35" style="edgeStyle=orthogonalEdgeStyle;rounded=0;orthogonalLoop=1;jettySize=auto;html=1;exitX=0.5;exitY=1;exitDx=0;exitDy=0;entryX=0.5;entryY=0;entryDx=0;entryDy=0;" edge="1" parent="1" source="NwUo4CZcdV5w115sLZpy-19" target="NwUo4CZcdV5w115sLZpy-10">
          <mxGeometry relative="1" as="geometry" />
        </mxCell>
        <mxCell id="NwUo4CZcdV5w115sLZpy-19" value="&lt;span style=&quot;color: rgb(0, 0, 0); font-family: Helvetica; font-size: 12px; font-style: normal; font-variant-ligatures: normal; font-variant-caps: normal; font-weight: 400; letter-spacing: normal; orphans: 2; text-align: center; text-indent: 0px; text-transform: none; widows: 2; word-spacing: 0px; -webkit-text-stroke-width: 0px; white-space: normal; background-color: rgb(251, 251, 251); text-decoration-thickness: initial; text-decoration-style: initial; text-decoration-color: initial; display: inline !important; float: none;&quot;&gt;Klik Button&lt;/span&gt;&lt;div style=&quot;forced-color-adjust: none; color: rgb(0, 0, 0); font-family: Helvetica; font-size: 12px; font-style: normal; font-variant-ligatures: normal; font-variant-caps: normal; font-weight: 400; letter-spacing: normal; orphans: 2; text-align: center; text-indent: 0px; text-transform: none; widows: 2; word-spacing: 0px; -webkit-text-stroke-width: 0px; white-space: normal; background-color: rgb(251, 251, 251); text-decoration-thickness: initial; text-decoration-style: initial; text-decoration-color: initial;&quot;&gt;&quot;Login&quot;&lt;/div&gt;" style="rounded=0;whiteSpace=wrap;html=1;" vertex="1" parent="1">
          <mxGeometry x="460" y="500" width="120" height="50" as="geometry" />
        </mxCell>
        <mxCell id="NwUo4CZcdV5w115sLZpy-9" value="" style="edgeStyle=orthogonalEdgeStyle;rounded=0;orthogonalLoop=1;jettySize=auto;html=1;" edge="1" parent="1" source="NwUo4CZcdV5w115sLZpy-6" target="NwUo4CZcdV5w115sLZpy-8">
          <mxGeometry relative="1" as="geometry" />
        </mxCell>
        <mxCell id="NwUo4CZcdV5w115sLZpy-13" value="ya" style="edgeStyle=orthogonalEdgeStyle;rounded=0;orthogonalLoop=1;jettySize=auto;html=1;" edge="1" parent="1" source="NwUo4CZcdV5w115sLZpy-10" target="NwUo4CZcdV5w115sLZpy-12">
          <mxGeometry relative="1" as="geometry" />
        </mxCell>
        <mxCell id="NwUo4CZcdV5w115sLZpy-41" value="tidak" style="edgeStyle=orthogonalEdgeStyle;rounded=0;orthogonalLoop=1;jettySize=auto;html=1;exitX=0.5;exitY=0;exitDx=0;exitDy=0;entryX=1;entryY=0.5;entryDx=0;entryDy=0;" edge="1" parent="1" source="NwUo4CZcdV5w115sLZpy-39" target="NwUo4CZcdV5w115sLZpy-6">
          <mxGeometry x="-0.2877" relative="1" as="geometry">
            <mxPoint as="offset" />
          </mxGeometry>
        </mxCell>
        <mxCell id="NwUo4CZcdV5w115sLZpy-43" value="ya" style="edgeStyle=orthogonalEdgeStyle;rounded=0;orthogonalLoop=1;jettySize=auto;html=1;" edge="1" parent="1" source="NwUo4CZcdV5w115sLZpy-39" target="NwUo4CZcdV5w115sLZpy-42">
          <mxGeometry relative="1" as="geometry" />
        </mxCell>
        <mxCell id="NwUo4CZcdV5w115sLZpy-39" value="Lupa akun?" style="rhombus;whiteSpace=wrap;html=1;rounded=0;" vertex="1" parent="1">
          <mxGeometry x="650" y="590" width="100" height="80" as="geometry" />
        </mxCell>
        <mxCell id="NwUo4CZcdV5w115sLZpy-42" value="Klik button&lt;div&gt;&quot;Lupa Akun&quot;&lt;/div&gt;" style="whiteSpace=wrap;html=1;rounded=0;" vertex="1" parent="1">
          <mxGeometry x="640" y="740" width="120" height="60" as="geometry" />
        </mxCell>
      </root>
    </mxGraphModel>
  </diagram>
</mxfile>
